<svg width="67" height="132" viewBox="0 0 67 132" fill="none" xmlns="http://www.w3.org/2000/svg">
<path d="M14.8951 22.8902V6.97031C14.8951 4.77891 16.674 3 18.8654 3H47.1475C49.3389 3 51.1178 4.77891 51.1178 6.97031V22.8902C51.1178 25.0816 49.3389 26.8605 47.1475 26.8605H18.8783C16.674 26.8605 14.8951 25.0816 14.8951 22.8902Z" fill="#CEE8FA"/>
<path d="M47.1346 54.4852H18.8654C15.6428 54.4852 13.0131 51.8555 13.0131 48.6328V32.7129C13.0131 29.4902 15.6428 26.8605 18.8654 26.8605H47.1475C50.3701 26.8605 52.9998 29.4902 52.9998 32.7129V48.6328C52.9869 51.8555 50.3572 54.4852 47.1346 54.4852ZM18.8654 30.6117C17.7053 30.6117 16.7643 31.5527 16.7643 32.7129V48.6328C16.7643 49.793 17.7053 50.734 18.8654 50.734H47.1475C48.3076 50.734 49.2486 49.793 49.2486 48.6328V32.7129C49.2486 31.5527 48.3076 30.6117 47.1475 30.6117H18.8654Z" fill="#2D527C"/>
<path d="M31.4338 41.775H30.8021V40.6278C30.8021 39.9703 30.1447 39.5449 29.1263 39.5449C28.108 39.5449 27.4506 39.9703 27.4506 40.6278V41.775H26.3033L29.5388 35.2781C29.5904 35.1492 29.6549 34.9946 29.6549 34.8399C29.6549 34.0278 28.5721 33.525 27.9791 33.525C27.3603 33.525 26.8576 33.8344 26.574 34.3887L22.1912 43.0125C22.0365 43.2961 22.0107 43.541 22.0107 43.6699C22.0107 44.3918 22.4877 44.8817 23.1838 44.8817H27.4506V46.7121C27.4506 47.4727 28.3142 47.8078 29.1263 47.8078C29.9256 47.8078 30.8021 47.4598 30.8021 46.7121V44.8817H31.4338C32.001 44.8817 32.5295 44.1211 32.5295 43.3219C32.5295 42.5742 32.1814 41.775 31.4338 41.775Z" fill="#2D527C"/>
<path d="M42.8806 41.775H42.249V40.6278C42.249 39.9703 41.5916 39.5449 40.5732 39.5449C39.5548 39.5449 38.8974 39.9703 38.8974 40.6278V41.775H37.7502L40.9986 35.2781C41.0502 35.1492 41.1146 34.9946 41.1146 34.8399C41.1146 34.0278 40.0318 33.525 39.4388 33.525C38.8201 33.525 38.3173 33.8344 38.0337 34.3887L33.6509 43.0125C33.4962 43.2961 33.4705 43.541 33.4705 43.6699C33.4705 44.3918 33.9474 44.8817 34.6435 44.8817H38.9103V46.7121C38.9103 47.4727 39.774 47.8078 40.5861 47.8078C41.3982 47.8078 42.2619 47.4598 42.2619 46.7121V44.8817H42.8935C43.4607 44.8817 43.9892 44.1211 43.9892 43.3219C43.9892 42.5742 43.6412 41.775 42.8806 41.775Z" fill="#2D527C"/>
<path d="M38.4527 58.2234H19.207C18.1758 58.2234 17.3379 57.3856 17.3379 56.3543C17.3379 55.3231 18.1758 54.4852 19.207 54.4852H38.4527C39.484 54.4852 40.3219 55.3231 40.3219 56.3543C40.3219 57.3856 39.484 58.2234 38.4527 58.2234Z" fill="#2D527C"/>
<path d="M23.3191 89.2254H17.3766C7.79883 89.2254 0 81.4266 0 71.8488C0 65.5066 3.45469 59.6672 9.02344 56.6121C9.92578 56.1094 11.073 56.4445 11.5758 57.3598C12.0785 58.2621 11.7434 59.4094 10.8281 59.9121C6.4582 62.3098 3.75117 66.8859 3.75117 71.8617C3.75117 79.377 9.86133 85.4871 17.3766 85.4871H23.3191C24.3504 85.4871 25.1883 86.325 25.1883 87.3563C25.2012 88.3746 24.3504 89.2254 23.3191 89.2254Z" fill="#2D527C"/>
<path d="M24.9176 102.941C16.3711 102.941 9.41016 95.9801 9.41016 87.4207C9.41016 86.3895 10.248 85.5516 11.2793 85.5516C12.3105 85.5516 13.1484 86.3895 13.1484 87.4207C13.1484 93.9047 18.4207 99.1899 24.9176 99.1899C31.4145 99.1899 36.6867 93.9176 36.6867 87.4207C36.6867 80.9367 31.4145 75.6516 24.9176 75.6516C21.6563 75.6516 18.627 76.9535 16.384 79.3125C15.675 80.0602 14.4891 80.0988 13.7285 79.377C12.9809 78.668 12.9422 77.482 13.6641 76.7215C16.6289 73.602 20.625 71.8875 24.9176 71.8875C33.477 71.8875 40.4379 78.8484 40.4379 87.4078C40.4379 95.9672 33.477 102.941 24.9176 102.941Z" fill="#F0BF5F"/>
<path d="M49.5645 85.5258H38.1176C37.0864 85.5258 36.2485 84.6879 36.2485 83.6566C36.2485 82.6254 37.0864 81.7875 38.1176 81.7875H49.5645C50.5957 81.7875 51.4336 82.6254 51.4336 83.6566C51.4336 84.6879 50.5957 85.5258 49.5645 85.5258Z" fill="#F0BF5F"/>
<path d="M61.8105 93.0668H38.5559C37.5246 93.0668 36.6867 92.2289 36.6867 91.1976C36.6867 90.1664 37.5246 89.3285 38.5559 89.3285H61.8105C62.0555 89.3285 62.2488 89.1351 62.2488 88.8902V78.2426C62.2488 77.8816 61.9523 77.598 61.6043 77.598H59.9801C59.6191 77.598 59.3355 77.8945 59.3355 78.2426V83.2441C59.3355 84.2754 58.4977 85.1133 57.4664 85.1133C56.4352 85.1133 55.5973 84.2754 55.5973 83.2441V78.2426C55.5973 75.8191 57.5695 73.8469 59.993 73.8469H61.6172C64.0406 73.8469 66.0129 75.8191 66.0129 78.2426V88.8902C66 91.1847 64.118 93.0668 61.8105 93.0668Z" fill="#F0BF5F"/>
<path d="M33.0064 113.614C35.9538 113.614 38.3432 111.225 38.3432 108.278C38.3432 105.33 35.9538 102.941 33.0064 102.941C30.0591 102.941 27.6697 105.33 27.6697 108.278C27.6697 111.225 30.0591 113.614 33.0064 113.614Z" fill="#CEE8FA"/>
<path d="M33.0064 128.026C29.0361 128.026 25.8006 124.791 25.8006 120.82C25.8006 116.85 29.0361 113.614 33.0064 113.614C36.9768 113.614 40.2123 116.85 40.2123 120.82C40.2123 124.791 36.9897 128.026 33.0064 128.026ZM33.0064 117.366C31.0986 117.366 29.5518 118.912 29.5518 120.82C29.5518 122.728 31.0986 124.275 33.0064 124.275C34.9143 124.275 36.4611 122.728 36.4611 120.82C36.4611 118.912 34.9143 117.366 33.0064 117.366Z" fill="#F0BF5F"/>
</svg>
